<svg width="522" height="379" viewBox="0 0 522 379" fill="none" xmlns="http://www.w3.org/2000/svg">
<g filter="url(#filter0_d_648_561)">
<path d="M332.626 367.572C292.664 376.953 282.08 324.522 243.38 324.887C192.744 325.366 136.879 379.012 90.3028 369.861C43.03 360.572 19.0694 319.317 9.33524 278.9C-1.19289 235.187 2.62242 183.319 34.2927 137.303C65.5906 91.8274 121.525 57.7236 176.888 35.4498C225.944 15.7133 273.239 26.3509 323.013 21.1432C371.132 16.1086 426.348 -10.6794 464.609 5.34619C502.937 21.3993 516.881 62.7365 517.038 102.409C517.177 137.497 485.806 172.59 465.411 208.004C449.827 235.063 432.681 260.123 411.658 285.387C387.294 314.666 370.748 358.624 332.626 367.572Z" fill="#484C9A"/>
<path d="M332.512 367.086C312.813 371.709 300.358 361.142 287.875 349.248C287.116 348.525 286.356 347.797 285.595 347.066C273.891 335.84 261.771 324.214 243.375 324.387C230.632 324.508 217.584 327.972 204.472 332.936C193.214 337.197 181.882 342.576 170.642 347.91C168.794 348.787 166.948 349.663 165.105 350.533C152.046 356.697 139.145 362.545 126.607 366.283C114.071 370.02 101.934 371.636 90.3992 369.37C43.4121 360.138 19.5375 319.125 9.82137 278.783C-0.679868 235.181 3.12892 183.465 34.7046 137.586C65.9209 92.2294 121.749 58.1726 177.074 35.9137C201.52 26.0787 225.537 23.8063 249.691 23.3481C257.261 23.2045 264.852 23.2395 272.474 23.2747C289.145 23.3516 305.969 23.4292 323.065 21.6405C339.515 19.9193 356.815 15.656 373.946 11.4344C381.906 9.47278 389.829 7.52018 397.614 5.83579C422.214 0.512954 445.443 -2.13946 464.416 5.80738C502.466 21.7439 516.381 62.8141 516.538 102.411C516.607 119.813 508.859 137.26 498.494 154.83C493.563 163.189 488.05 171.559 482.52 179.954C482.241 180.377 481.962 180.8 481.684 181.224C475.878 190.04 470.085 198.886 464.978 207.754C449.407 234.79 432.278 259.827 411.274 285.067C405.164 292.41 399.548 300.667 393.975 309.045C393.272 310.103 392.569 311.163 391.865 312.223C386.995 319.566 382.112 326.926 376.903 333.802C364.978 349.54 351.401 362.652 332.512 367.086Z" stroke="black"/>
</g>
<defs>
<filter id="filter0_d_648_561" x="0.0771484" y="0.295776" width="520.961" height="378.615" filterUnits="userSpaceOnUse" color-interpolation-filters="sRGB">
<feFlood flood-opacity="0" result="BackgroundImageFix"/>
<feColorMatrix in="SourceAlpha" type="matrix" values="0 0 0 0 0 0 0 0 0 0 0 0 0 0 0 0 0 0 127 0" result="hardAlpha"/>
<feOffset dy="4"/>
<feGaussianBlur stdDeviation="2"/>
<feComposite in2="hardAlpha" operator="out"/>
<feColorMatrix type="matrix" values="0 0 0 0 0 0 0 0 0 0 0 0 0 0 0 0 0 0 0.25 0"/>
<feBlend mode="normal" in2="BackgroundImageFix" result="effect1_dropShadow_648_561"/>
<feBlend mode="normal" in="SourceGraphic" in2="effect1_dropShadow_648_561" result="shape"/>
</filter>
</defs>
</svg>
