<svg width="650" height="707" viewBox="0 0 650 707" fill="none" xmlns="http://www.w3.org/2000/svg">
<path d="M519.45 16.5245C551.726 55.4745 491.994 137.552 512.411 186.667C539.124 250.928 634.644 252.411 647.289 324.054C660.124 396.769 621.188 481.383 575.956 546.673C527.034 617.287 460.575 680.177 387.024 699.727C314.337 719.047 243.081 691.936 186.829 650.1C136.986 613.029 125.816 538.523 93.6669 481.546C62.5861 426.464 0.797733 390.715 0.987435 320.744C1.17746 250.652 45.3825 178.765 94.6288 126.722C138.185 80.6919 198 75.0323 252.553 54.8897C294.237 39.4988 334.24 28.7215 376.496 22.6474C425.468 15.6079 488.659 -20.6323 519.45 16.5245Z" fill="#484C9A"/>
</svg>
